<?xml version="1.0" encoding="UTF-8"?>
<svg width="30.7mm" height="30.7mm" version="1.1" viewBox="0 0 30.7 30.7" xmlns="http://www.w3.org/2000/svg">
<g transform="translate(-26.327 -100.13)">
<circle cx="41.676" cy="115.48" r="15.35" fill="#025"/>
<g transform="translate(-48.459 -10.084)" fill="#fff">
<path d="m80.332 126.4c0.25242-2.5873 2.2086-2.9028 2.6188-2.9028 0.41018 0 2.0824-0.12621 2.7766 0.0316 0.69415 0.15776 2.4926 0.37863 3.66 0.50483 1.1674 0.12621 1.5461 0.22087 2.1771 0.18932 0.63104-0.0315 1.2779-0.0789 1.2779-0.0789 0.74382-0.16541 1.4862-0.20981 2.1929-0.47328 0.31552-0.0316 0.31552-0.11048 1.1674-0.26819 0.85191-0.15776 1.2621-0.22086 1.6092-0.15776 0.34707 0.0631 0.7888 0.0947 0.91501 0.28397 0.12621 0.18931 0.18931 0.50483 0.25242 0.69415 0.0631 0.18931 0.12621 0.56794 0.03155 0.75725-0.09466 0.18931-0.28397 0.50483-0.28397 0.50483s-0.18931 0.25242-0.31552 0.31552c-0.12621 0.0631-0.50483 0.31553-0.7257 0.34708-0.22087 0.0316-4.2911 1.7985-4.2911 1.7985h-5.3008l-0.44173 6.6259-7.0361 0.0316z"/>
<path d="m93.615 128.8s5.0799-2.0193 5.427-2.3033c0.34708-0.28397 0.56794-0.37862 0.59949-0.85191 0.03155-0.47328 0-1.5776 0-1.5776s0.25242 0.0947 0.44173 0.34707c0.18931 0.25242 0.50483 0.69415 0.59949 0.97812 0.0947 0.28397 0.22086 1.0097 0.22086 1.1674s-0.47328 7.9827-0.47328 7.9827l-6.9099 0.12621z"/>
<circle cx="85.159" cy="118.86" r="3.8494"/>
<circle cx="94.53" cy="119.33" r="3.66"/>
</g>
</g>
</svg>
